<svg width="89" height="89" viewBox="0 0 89 89" fill="none" xmlns="http://www.w3.org/2000/svg">
<circle cx="44.5" cy="44.5" r="44.5" fill="#F1FFED"/>
<circle cx="44.0299" cy="44.0299" r="34.0299" fill="#DDFFD5"/>
<path d="M44.0001 18.9926C30.21 18.9926 18.9927 30.2115 18.9927 44.0008C18.9927 57.7902 30.21 69.0074 44.0001 69.0074C57.7894 69.0074 69.0074 57.7902 69.0074 44.0008C69.0074 30.2115 57.7895 18.9926 44.0001 18.9926ZM44.0001 65.0628C32.3857 65.0628 22.9372 55.6144 22.9372 44.0007C22.9372 32.3856 32.3857 22.9371 44.0001 22.9371C55.6145 22.9371 65.063 32.3856 65.063 44.0007C65.063 55.6144 55.6145 65.0628 44.0001 65.0628Z" fill="#9AF384"/>
<path d="M40.0456 39.0996C40.0456 37.5175 42.3595 37.2473 44.3667 37.2473C46.2585 37.2473 48.8434 38.1339 51.0048 39.2545L51.4284 34.8938C50.3475 34.2759 47.8399 33.5425 45.2928 33.3893L45.9101 28.9512H41.7811L42.3992 33.3893C37.0744 33.8902 35.3375 36.977 35.3375 39.5627C35.3375 46.0837 47.4916 44.696 47.4916 48.7075C47.4916 50.2137 46.065 50.7527 43.5561 50.7527C40.1611 50.7527 37.6133 49.5577 36.3023 48.3219L35.6457 53.223C36.8816 53.9564 39.3884 54.6122 42.3992 54.7671L41.7811 59.0504H45.9101L45.2928 54.7278C51.5439 54.1872 52.6628 50.8682 52.6628 48.6696C52.6629 40.914 40.0456 42.8423 40.0456 39.0996Z" fill="#9AF384"/>
</svg>
