<svg width="89" height="89" viewBox="0 0 89 89" fill="none" xmlns="http://www.w3.org/2000/svg">
<circle cx="44.5" cy="44.5" r="44.5" fill="#F1FFED"/>
<circle cx="44.0299" cy="44.0299" r="34.0299" fill="#DDFFD5"/>
<path d="M62.1391 26.3734C61.6062 25.9258 60.9615 25.6317 60.2742 25.5227C59.5868 25.4137 58.8828 25.4939 58.2375 25.7547L18.861 41.5156C18.287 41.7541 17.7965 42.1572 17.4515 42.6742C17.1064 43.1912 16.9222 43.7988 16.9222 44.4203C16.9222 45.0419 17.1064 45.6495 17.4515 46.1665C17.7965 46.6834 18.287 47.0866 18.861 47.325L21.4047 48.3734C21.8242 48.5509 22.2968 48.5546 22.719 48.3838C23.1411 48.213 23.4783 47.8816 23.6563 47.4625C23.7437 47.2538 23.7889 47.0299 23.7895 46.8036C23.7901 46.5773 23.7461 46.3532 23.6598 46.144C23.5736 45.9348 23.4469 45.7447 23.287 45.5846C23.1272 45.4245 22.9372 45.2975 22.7282 45.2109L20.8376 44.4375L59.5266 28.9688C59.5861 28.9323 59.6545 28.913 59.7243 28.913C59.794 28.913 59.8624 28.9323 59.9219 28.9688C59.978 29.0164 60.0204 29.0782 60.0445 29.1477C60.0687 29.2172 60.0738 29.2919 60.0594 29.3641L52.9954 62.3297C52.9722 62.4471 52.9188 62.5564 52.8404 62.6468C52.762 62.7373 52.6614 62.8057 52.5485 62.8453C52.4377 62.8893 52.3172 62.9029 52.1993 62.8848C52.0815 62.8667 51.9706 62.8174 51.8782 62.7422L38.1282 52.0172L51.586 38.4219C51.8735 38.1236 52.0436 37.7315 52.0649 37.3178C52.0863 36.9041 51.9576 36.4966 51.7024 36.1703C51.4472 35.844 51.0827 35.6208 50.676 35.5419C50.2694 35.4629 49.8479 35.5335 49.4891 35.7406L29.7579 47.4281C29.5387 47.5272 29.3428 47.6711 29.1828 47.8506C29.0227 48.0301 28.9021 48.2412 28.8288 48.4703C28.7555 48.6993 28.731 48.9412 28.757 49.1803C28.7831 49.4194 28.859 49.6503 28.9798 49.8582C29.1007 50.0661 29.2639 50.2464 29.4588 50.3873C29.6537 50.5281 29.876 50.6266 30.1113 50.6762C30.3466 50.7258 30.5897 50.7254 30.8249 50.6751C31.0601 50.6249 31.2821 50.5258 31.4766 50.3844L39.7782 45.4859L35.7391 49.5938C35.3696 49.9409 35.0815 50.3655 34.8954 50.8372C34.7093 51.3088 34.6298 51.8157 34.6627 52.3217C34.6955 52.8276 34.8399 53.32 35.0854 53.7636C35.3309 54.2072 35.6716 54.591 36.0829 54.8875L49.8329 65.4578C50.5566 66.0163 51.4453 66.3186 52.3594 66.3172C52.8462 66.3137 53.3288 66.2265 53.786 66.0594C54.4426 65.8237 55.0276 65.4233 55.485 64.8966C55.9425 64.37 56.257 63.7347 56.3985 63.0516L63.411 30.1203C63.5598 29.4392 63.5201 28.7303 63.2959 28.0701C63.0718 27.4098 62.6719 26.8232 62.1391 26.3734V26.3734Z" fill="#9AF384"/>
</svg>
