<svg width="89" height="89" viewBox="0 0 89 89" fill="none" xmlns="http://www.w3.org/2000/svg">
<circle cx="44.5" cy="44.5" r="44.5" fill="#F1FFED"/>
<circle cx="44.0299" cy="44.0299" r="34.0299" fill="#DDFFD5"/>
<path d="M45.184 22.871V20.6129C45.1842 20.2933 45.0604 19.9863 44.8393 19.7573C44.6181 19.5283 44.317 19.3955 44 19.3871C43.6886 19.3952 43.3921 19.5236 43.1718 19.7457C42.9515 19.9678 42.8241 20.2667 42.816 20.5806V22.871C36.894 23.1863 31.3282 25.82 27.304 30.211C23.2799 34.6021 21.1155 40.4036 21.272 46.3796C21.4284 52.3556 23.8933 58.0339 28.1416 62.2049C32.3899 66.3759 38.0858 68.71 44.016 68.71C49.9463 68.71 55.6422 66.3759 59.8905 62.2049C64.1388 58.0339 66.6037 52.3556 66.7601 46.3796C66.9166 40.4036 64.7522 34.6021 60.7281 30.211C56.7039 25.82 51.1381 23.1863 45.216 22.871H45.184ZM44 66.1935C39.9811 66.1935 36.0525 64.9922 32.7109 62.7414C29.3693 60.4906 26.7648 57.2915 25.2268 53.5485C23.6888 49.8056 23.2864 45.6869 24.0705 41.7135C24.8545 37.74 26.7898 34.0901 29.6316 31.2254C32.4734 28.3607 36.0941 26.4098 40.0358 25.6194C43.9775 24.829 48.0632 25.2347 51.7762 26.785C55.4892 28.3354 58.6627 30.9609 60.8955 34.3294C63.1283 37.698 64.32 41.6583 64.32 45.7097C64.3116 51.1397 62.168 56.3449 58.3591 60.1845C54.5502 64.0242 49.3866 66.185 44 66.1935Z" fill="#9AF384"/>
<path d="M60.704 45.0968C60.4409 45.0968 60.1886 45.2021 60.0026 45.3897C59.8166 45.5772 59.712 45.8316 59.712 46.0968C59.712 46.362 59.8166 46.6163 60.0026 46.8039C60.1886 46.9914 60.4409 47.0968 60.704 47.0968C60.9671 47.0968 61.2195 46.9914 61.4055 46.8039C61.5915 46.6163 61.696 46.362 61.696 46.0968C61.696 45.8316 61.5915 45.5772 61.4055 45.3897C61.2195 45.2021 60.9671 45.0968 60.704 45.0968V45.0968Z" fill="#9AF384"/>
<path d="M27.296 45.0968C27.0329 45.0968 26.7805 45.2021 26.5945 45.3897C26.4085 45.5772 26.304 45.8316 26.304 46.0968C26.304 46.362 26.4085 46.6163 26.5945 46.8039C26.7805 46.9914 27.0329 47.0968 27.296 47.0968C27.5591 47.0968 27.8114 46.9914 27.9974 46.8039C28.1834 46.6163 28.288 46.362 28.288 46.0968C28.288 45.8316 28.1834 45.5772 27.9974 45.3897C27.8114 45.2021 27.5591 45.0968 27.296 45.0968V45.0968Z" fill="#9AF384"/>
<path d="M44.0001 63.3871C44.5479 63.3871 44.9921 62.9394 44.9921 62.3871C44.9921 61.8348 44.5479 61.3871 44.0001 61.3871C43.4522 61.3871 43.0081 61.8348 43.0081 62.3871C43.0081 62.9394 43.4522 63.3871 44.0001 63.3871Z" fill="#9AF384"/>
<path d="M44.0001 29.7097C44.1963 29.7097 44.3881 29.651 44.5512 29.5412C44.7143 29.4313 44.8415 29.2751 44.9165 29.0924C44.9916 28.9096 45.0113 28.7086 44.973 28.5146C44.9347 28.3206 44.8402 28.1424 44.7015 28.0026C44.5628 27.8627 44.386 27.7675 44.1936 27.7289C44.0012 27.6903 43.8017 27.7101 43.6204 27.7858C43.4392 27.8615 43.2842 27.9897 43.1752 28.1541C43.0662 28.3186 43.0081 28.5119 43.0081 28.7097C43.0081 28.9749 43.1126 29.2293 43.2986 29.4168C43.4846 29.6043 43.737 29.7097 44.0001 29.7097V29.7097Z" fill="#9AF384"/>
<path d="M27.776 26.6774C28.013 26.6738 28.2449 26.607 28.448 26.4839L33.44 23.2581C33.6794 23.0828 33.8472 22.8257 33.9119 22.5347C33.9767 22.2438 33.9341 21.939 33.792 21.6774C33.7076 21.542 33.597 21.4251 33.4669 21.3336C33.3368 21.2421 33.1898 21.1779 33.0346 21.1448C32.8793 21.1117 32.7191 21.1104 32.5634 21.1409C32.4076 21.1714 32.2596 21.2332 32.128 21.3226L27.136 24.5484C26.8715 24.7261 26.6865 25.0012 26.6207 25.3147C26.5549 25.6283 26.6135 25.9553 26.784 26.2258C26.9015 26.3756 27.0529 26.4948 27.2255 26.5733C27.3981 26.6519 27.5869 26.6876 27.776 26.6774V26.6774Z" fill="#9AF384"/>
<path d="M54.24 23.2258L59.232 26.4516C59.4352 26.5747 59.667 26.6415 59.904 26.6452C60.1567 26.6324 60.3991 26.5404 60.5975 26.3821C60.7959 26.2239 60.9404 26.0071 61.0108 25.7622C61.0813 25.5172 61.0742 25.2562 60.9905 25.0155C60.9068 24.7748 60.7507 24.5664 60.544 24.4194L55.552 21.1936C55.4204 21.1042 55.2724 21.0424 55.1167 21.0119C54.9609 20.9813 54.8007 20.9826 54.6455 21.0157C54.4903 21.0488 54.3432 21.113 54.2131 21.2045C54.083 21.2961 53.9724 21.413 53.888 21.5484C53.7175 21.8189 53.6589 22.1459 53.7247 22.4595C53.7905 22.773 53.9755 23.0481 54.24 23.2258V23.2258Z" fill="#9AF384"/>
<path d="M42.0799 48.8387H39.3279C40.7976 47.5662 42.0799 46.089 43.1359 44.4516C43.3262 43.9055 43.3671 43.3179 43.2545 42.7503C43.1419 42.1827 42.8799 41.6562 42.4959 41.2258C42.0185 40.6719 41.3969 40.2636 40.7014 40.047C40.0059 39.8304 39.2641 39.8141 38.5599 40C37.8737 40.2221 37.2378 40.5786 36.6886 41.0492C36.1395 41.5197 35.6879 42.095 35.3599 42.7419C35.2255 43.0294 35.2071 43.3583 35.3086 43.6592C35.4101 43.9601 35.6235 44.2095 35.9039 44.3548C36.0507 44.4327 36.2114 44.4802 36.3766 44.4947C36.5418 44.5092 36.7082 44.4904 36.8661 44.4394C37.024 44.3883 37.1702 44.306 37.2962 44.1974C37.4222 44.0887 37.5255 43.9558 37.5999 43.8065C37.9311 43.128 38.5017 42.5988 39.1999 42.3226C39.4807 42.2267 39.7837 42.2185 40.0692 42.2991C40.3547 42.3797 40.6094 42.5453 40.7999 42.7742C40.8674 42.8919 40.9028 43.0254 40.9028 43.1613C40.9028 43.2972 40.8674 43.4307 40.7999 43.5484C39.1557 45.5786 37.3351 47.457 35.3599 49.1613C35.1754 49.3219 35.0445 49.536 34.9852 49.7744C34.9258 50.0128 34.941 50.2639 35.0285 50.4933C35.116 50.7227 35.2717 50.9192 35.4742 51.0561C35.6767 51.193 35.9162 51.2635 36.1599 51.2581H42.0799C42.394 51.2581 42.6951 51.1323 42.9172 50.9085C43.1392 50.6847 43.2639 50.3811 43.2639 50.0645C43.2641 49.7449 43.1403 49.4379 42.9192 49.209C42.698 48.98 42.3969 48.8471 42.0799 48.8387V48.8387Z" fill="#9AF384"/>
<path d="M52.768 43.2258C52.5373 43.0104 52.2345 42.8908 51.92 42.8908C51.6056 42.8908 51.3027 43.0104 51.072 43.2258L48.96 45.3548L46.848 43.2258C46.6173 43.0104 46.3145 42.8908 46 42.8908C45.6856 42.8908 45.3827 43.0104 45.152 43.2258C45.0388 43.337 44.9488 43.4699 44.8874 43.6168C44.826 43.7636 44.7943 43.9213 44.7943 44.0807C44.7943 44.24 44.826 44.3977 44.8874 44.5445C44.9488 44.6914 45.0388 44.8243 45.152 44.9355L47.264 47.0645L45.152 49.1936C45.0388 49.3048 44.9488 49.4377 44.8874 49.5845C44.826 49.7313 44.7943 49.8891 44.7943 50.0484C44.7943 50.2077 44.826 50.3655 44.8874 50.5123C44.9488 50.6591 45.0388 50.792 45.152 50.9032C45.2574 51.019 45.3862 51.1106 45.5298 51.1718C45.6733 51.233 45.8282 51.2625 45.984 51.2581C46.1446 51.2629 46.3045 51.2339 46.4533 51.1728C46.6021 51.1117 46.7365 51.0198 46.848 50.9032L48.96 48.7742L51.072 50.9032C51.1774 51.019 51.3062 51.1106 51.4498 51.1718C51.5933 51.233 51.7482 51.2625 51.904 51.2581C52.0646 51.2629 52.2245 51.2339 52.3733 51.1728C52.522 51.1117 52.6565 51.0198 52.768 50.9032C52.9817 50.6707 53.1004 50.3654 53.1004 50.0484C53.1004 49.7314 52.9817 49.4261 52.768 49.1936L50.656 47.0645L52.768 44.9355C52.9817 44.7029 53.1004 44.3976 53.1004 44.0807C53.1004 43.7637 52.9817 43.4584 52.768 43.2258V43.2258Z" fill="#9AF384"/>
</svg>
