<svg width="605" height="867" viewBox="0 0 605 867" fill="none" xmlns="http://www.w3.org/2000/svg">
<g filter="url(#filter0_f_750_3)">
<rect x="135" y="286" width="330" height="336" rx="165" fill="#CAFFBF"/>
</g>
<circle cx="437.5" cy="699.5" r="167.5" fill="#D9ED92"/>
<circle cx="183.5" cy="183.5" r="183.5" fill="#B5E48C"/>
<g filter="url(#filter1_bd_750_3)">
<rect x="183" y="197" width="264" height="513" rx="15" fill="url(#paint0_linear_750_3)" shape-rendering="crispEdges"/>
</g>
<rect x="197" y="238" width="237" height="70" rx="15" fill="white" fill-opacity="0.51"/>
<path d="M281.852 265.588V262.545H296.188V265.588H290.844V280H287.196V265.588H281.852ZM302.548 280.256C301.201 280.256 300.042 279.983 299.07 279.438C298.104 278.886 297.36 278.108 296.837 277.102C296.315 276.091 296.053 274.895 296.053 273.514C296.053 272.168 296.315 270.986 296.837 269.969C297.36 268.952 298.096 268.159 299.045 267.591C299.999 267.023 301.119 266.739 302.403 266.739C303.266 266.739 304.07 266.878 304.815 267.156C305.565 267.429 306.218 267.841 306.775 268.392C307.337 268.943 307.775 269.636 308.087 270.472C308.4 271.301 308.556 272.273 308.556 273.386V274.384H297.502V272.134H305.138C305.138 271.611 305.025 271.148 304.798 270.744C304.57 270.341 304.255 270.026 303.852 269.798C303.454 269.565 302.991 269.449 302.462 269.449C301.911 269.449 301.423 269.577 300.996 269.832C300.576 270.082 300.246 270.42 300.008 270.847C299.769 271.267 299.647 271.736 299.641 272.253V274.392C299.641 275.04 299.761 275.599 299.999 276.071C300.244 276.543 300.587 276.906 301.031 277.162C301.474 277.418 301.999 277.545 302.607 277.545C303.011 277.545 303.38 277.489 303.715 277.375C304.05 277.261 304.337 277.091 304.576 276.864C304.815 276.636 304.996 276.358 305.121 276.028L308.479 276.25C308.309 277.057 307.96 277.761 307.431 278.364C306.908 278.96 306.232 279.426 305.403 279.761C304.579 280.091 303.627 280.256 302.548 280.256ZM314.658 280.247C313.823 280.247 313.079 280.102 312.425 279.812C311.772 279.517 311.255 279.082 310.874 278.509C310.499 277.929 310.312 277.207 310.312 276.344C310.312 275.616 310.445 275.006 310.712 274.511C310.979 274.017 311.343 273.619 311.803 273.318C312.263 273.017 312.786 272.79 313.371 272.636C313.962 272.483 314.582 272.375 315.229 272.312C315.991 272.233 316.604 272.159 317.07 272.091C317.536 272.017 317.874 271.909 318.085 271.767C318.295 271.625 318.4 271.415 318.4 271.136V271.085C318.4 270.545 318.229 270.128 317.888 269.832C317.553 269.537 317.076 269.389 316.457 269.389C315.803 269.389 315.283 269.534 314.897 269.824C314.511 270.108 314.255 270.466 314.13 270.898L310.772 270.625C310.942 269.83 311.278 269.142 311.778 268.562C312.278 267.977 312.923 267.528 313.712 267.216C314.508 266.898 315.428 266.739 316.474 266.739C317.201 266.739 317.897 266.824 318.562 266.994C319.232 267.165 319.826 267.429 320.343 267.787C320.866 268.145 321.278 268.605 321.579 269.168C321.88 269.724 322.031 270.392 322.031 271.17V280H318.587V278.185H318.485C318.275 278.594 317.994 278.955 317.641 279.267C317.289 279.574 316.866 279.815 316.371 279.991C315.877 280.162 315.306 280.247 314.658 280.247ZM315.698 277.741C316.232 277.741 316.704 277.636 317.113 277.426C317.522 277.21 317.843 276.92 318.076 276.557C318.309 276.193 318.425 275.781 318.425 275.321V273.932C318.312 274.006 318.156 274.074 317.957 274.136C317.763 274.193 317.545 274.247 317.3 274.298C317.056 274.344 316.812 274.386 316.567 274.426C316.323 274.46 316.102 274.491 315.903 274.52C315.477 274.582 315.104 274.682 314.786 274.818C314.468 274.955 314.221 275.139 314.045 275.372C313.869 275.599 313.781 275.884 313.781 276.224C313.781 276.719 313.96 277.097 314.317 277.358C314.681 277.614 315.141 277.741 315.698 277.741ZM324.847 280V266.909H328.308V269.219H328.461C328.734 268.452 329.188 267.847 329.825 267.403C330.461 266.96 331.222 266.739 332.109 266.739C333.006 266.739 333.771 266.963 334.401 267.412C335.032 267.855 335.452 268.457 335.663 269.219H335.799C336.066 268.469 336.549 267.869 337.248 267.42C337.952 266.966 338.785 266.739 339.745 266.739C340.967 266.739 341.958 267.128 342.719 267.906C343.487 268.679 343.87 269.776 343.87 271.196V280H340.248V271.912C340.248 271.185 340.055 270.639 339.668 270.276C339.282 269.912 338.799 269.73 338.219 269.73C337.56 269.73 337.046 269.94 336.677 270.361C336.308 270.776 336.123 271.324 336.123 272.006V280H332.603V271.835C332.603 271.193 332.418 270.682 332.049 270.301C331.685 269.92 331.205 269.73 330.609 269.73C330.205 269.73 329.842 269.832 329.518 270.037C329.2 270.236 328.947 270.517 328.759 270.881C328.572 271.239 328.478 271.659 328.478 272.142V280H324.847ZM356.29 280L351.295 262.545H355.327L358.216 274.673H358.361L361.548 262.545H365L368.179 274.699H368.332L371.222 262.545H375.253L370.259 280H366.662L363.338 268.588H363.202L359.886 280H356.29ZM381.668 280.256C380.344 280.256 379.2 279.974 378.234 279.412C377.273 278.844 376.532 278.054 376.009 277.043C375.487 276.026 375.225 274.847 375.225 273.506C375.225 272.153 375.487 270.972 376.009 269.96C376.532 268.943 377.273 268.153 378.234 267.591C379.2 267.023 380.344 266.739 381.668 266.739C382.992 266.739 384.134 267.023 385.094 267.591C386.06 268.153 386.805 268.943 387.327 269.96C387.85 270.972 388.112 272.153 388.112 273.506C388.112 274.847 387.85 276.026 387.327 277.043C386.805 278.054 386.06 278.844 385.094 279.412C384.134 279.974 382.992 280.256 381.668 280.256ZM381.685 277.443C382.288 277.443 382.79 277.273 383.194 276.932C383.597 276.585 383.901 276.114 384.106 275.517C384.316 274.92 384.421 274.241 384.421 273.48C384.421 272.719 384.316 272.04 384.106 271.443C383.901 270.847 383.597 270.375 383.194 270.028C382.79 269.682 382.288 269.509 381.685 269.509C381.077 269.509 380.566 269.682 380.151 270.028C379.742 270.375 379.433 270.847 379.222 271.443C379.018 272.04 378.915 272.719 378.915 273.48C378.915 274.241 379.018 274.92 379.222 275.517C379.433 276.114 379.742 276.585 380.151 276.932C380.566 277.273 381.077 277.443 381.685 277.443ZM390.472 280V266.909H393.992V269.193H394.129C394.367 268.381 394.768 267.767 395.33 267.352C395.893 266.932 396.54 266.722 397.273 266.722C397.455 266.722 397.651 266.733 397.862 266.756C398.072 266.778 398.256 266.81 398.415 266.849V270.071C398.245 270.02 398.009 269.974 397.708 269.935C397.407 269.895 397.131 269.875 396.881 269.875C396.347 269.875 395.87 269.991 395.45 270.224C395.035 270.452 394.705 270.77 394.461 271.179C394.222 271.588 394.103 272.06 394.103 272.594V280H390.472ZM403.582 276.233L403.591 271.878H404.119L408.312 266.909H412.48L406.847 273.489H405.986L403.582 276.233ZM400.293 280V262.545H403.923V280H400.293ZM408.474 280L404.622 274.298L407.043 271.733L412.727 280H408.474Z" fill="#3D5A80"/>
<path d="M240.257 267.581C243.526 267.581 246.177 264.931 246.177 261.662C246.177 258.393 243.526 255.743 240.257 255.743C236.988 255.743 234.338 258.393 234.338 261.662C234.338 264.931 236.988 267.581 240.257 267.581Z" stroke="#3D5A80" stroke-width="3" stroke-linecap="round" stroke-linejoin="round"/>
<path d="M233.354 273.5H235.132C234.801 272.096 234.006 270.845 232.876 269.95C231.746 269.054 230.346 268.566 228.904 268.565H220.356C218.654 268.565 217.021 269.241 215.817 270.445C214.614 271.649 213.938 273.281 213.938 274.983C213.938 276.686 214.614 278.318 215.817 279.522C217.021 280.726 218.654 281.402 220.356 281.402H225.453C225.453 279.306 226.285 277.296 227.767 275.814C229.249 274.332 231.259 273.5 233.354 273.5V273.5Z" stroke="#788698" stroke-width="3" stroke-linecap="round" stroke-linejoin="round"/>
<path d="M224.63 264.291C225.48 264.294 226.311 264.044 227.018 263.574C227.726 263.104 228.278 262.435 228.604 261.65C228.931 260.866 229.017 260.002 228.852 259.169C228.687 258.336 228.278 257.57 227.677 256.97C227.077 256.369 226.311 255.96 225.478 255.795C224.645 255.63 223.781 255.716 222.997 256.043C222.212 256.369 221.543 256.921 221.073 257.629C220.603 258.336 220.353 259.167 220.356 260.017C220.356 261.15 220.806 262.238 221.608 263.039C222.409 263.841 223.496 264.291 224.63 264.291V264.291Z" stroke="#788698" stroke-width="3" stroke-linecap="round" stroke-linejoin="round"/>
<path d="M247.161 273.5H233.354C228.99 273.5 225.453 277.038 225.453 281.402V283.37C225.453 287.734 228.99 291.272 233.354 291.272H247.161C251.525 291.272 255.063 287.734 255.063 283.37V281.402C255.063 277.038 251.525 273.5 247.161 273.5Z" stroke="#3D5A80" stroke-width="3" stroke-linecap="round" stroke-linejoin="round"/>
<rect x="197" y="327" width="237" height="70" rx="15" fill="white" fill-opacity="0.5"/>
<path d="M282.517 372V354.545H289.403C290.727 354.545 291.855 354.798 292.787 355.304C293.719 355.804 294.429 356.5 294.918 357.392C295.412 358.278 295.659 359.301 295.659 360.46C295.659 361.619 295.409 362.642 294.909 363.528C294.409 364.415 293.685 365.105 292.736 365.599C291.793 366.094 290.651 366.341 289.31 366.341H284.92V363.384H288.713C289.423 363.384 290.009 363.261 290.469 363.017C290.935 362.767 291.281 362.423 291.509 361.986C291.741 361.543 291.858 361.034 291.858 360.46C291.858 359.881 291.741 359.375 291.509 358.943C291.281 358.506 290.935 358.168 290.469 357.929C290.003 357.685 289.412 357.562 288.696 357.562H286.207V372H282.517ZM297.988 372V358.909H301.508V361.193H301.644C301.883 360.381 302.283 359.767 302.846 359.352C303.408 358.932 304.056 358.722 304.789 358.722C304.971 358.722 305.167 358.733 305.377 358.756C305.587 358.778 305.772 358.81 305.931 358.849V362.071C305.761 362.02 305.525 361.974 305.224 361.935C304.923 361.895 304.647 361.875 304.397 361.875C303.863 361.875 303.386 361.991 302.965 362.224C302.55 362.452 302.221 362.77 301.977 363.179C301.738 363.588 301.619 364.06 301.619 364.594V372H297.988ZM313.114 372.256C311.79 372.256 310.645 371.974 309.679 371.412C308.719 370.844 307.977 370.054 307.455 369.043C306.932 368.026 306.67 366.847 306.67 365.506C306.67 364.153 306.932 362.972 307.455 361.96C307.977 360.943 308.719 360.153 309.679 359.591C310.645 359.023 311.79 358.739 313.114 358.739C314.438 358.739 315.58 359.023 316.54 359.591C317.506 360.153 318.25 360.943 318.773 361.96C319.295 362.972 319.557 364.153 319.557 365.506C319.557 366.847 319.295 368.026 318.773 369.043C318.25 370.054 317.506 370.844 316.54 371.412C315.58 371.974 314.438 372.256 313.114 372.256ZM313.131 369.443C313.733 369.443 314.236 369.273 314.639 368.932C315.043 368.585 315.347 368.114 315.551 367.517C315.761 366.92 315.866 366.241 315.866 365.48C315.866 364.719 315.761 364.04 315.551 363.443C315.347 362.847 315.043 362.375 314.639 362.028C314.236 361.682 313.733 361.509 313.131 361.509C312.523 361.509 312.011 361.682 311.597 362.028C311.188 362.375 310.878 362.847 310.668 363.443C310.463 364.04 310.361 364.719 310.361 365.48C310.361 366.241 310.463 366.92 310.668 367.517C310.878 368.114 311.188 368.585 311.597 368.932C312.011 369.273 312.523 369.443 313.131 369.443ZM326.741 372.213C325.747 372.213 324.847 371.957 324.04 371.446C323.239 370.929 322.602 370.17 322.131 369.17C321.665 368.165 321.432 366.932 321.432 365.472C321.432 363.972 321.673 362.724 322.156 361.73C322.639 360.73 323.281 359.983 324.082 359.489C324.889 358.989 325.773 358.739 326.733 358.739C327.466 358.739 328.077 358.864 328.565 359.114C329.06 359.358 329.457 359.665 329.759 360.034C330.065 360.398 330.298 360.756 330.457 361.108H330.568V354.545H334.19V372H330.611V369.903H330.457C330.287 370.267 330.045 370.628 329.733 370.986C329.426 371.338 329.026 371.631 328.531 371.864C328.043 372.097 327.446 372.213 326.741 372.213ZM327.892 369.324C328.477 369.324 328.972 369.165 329.375 368.847C329.784 368.523 330.097 368.071 330.312 367.491C330.534 366.912 330.645 366.233 330.645 365.455C330.645 364.676 330.537 364 330.321 363.426C330.105 362.852 329.793 362.409 329.384 362.097C328.974 361.784 328.477 361.628 327.892 361.628C327.295 361.628 326.793 361.79 326.384 362.114C325.974 362.437 325.665 362.886 325.455 363.46C325.244 364.034 325.139 364.699 325.139 365.455C325.139 366.216 325.244 366.889 325.455 367.474C325.67 368.054 325.98 368.509 326.384 368.838C326.793 369.162 327.295 369.324 327.892 369.324ZM345.57 366.426V358.909H349.201V372H345.715V369.622H345.579C345.283 370.389 344.792 371.006 344.104 371.472C343.423 371.937 342.59 372.17 341.607 372.17C340.732 372.17 339.962 371.972 339.298 371.574C338.633 371.176 338.113 370.611 337.738 369.878C337.369 369.145 337.181 368.267 337.175 367.244V358.909H340.806V366.597C340.812 367.369 341.019 367.98 341.428 368.429C341.837 368.878 342.386 369.102 343.073 369.102C343.511 369.102 343.92 369.003 344.3 368.804C344.681 368.599 344.988 368.298 345.221 367.901C345.46 367.503 345.576 367.011 345.57 366.426ZM358.02 372.256C356.679 372.256 355.526 371.972 354.56 371.403C353.599 370.83 352.861 370.034 352.344 369.017C351.832 368 351.577 366.83 351.577 365.506C351.577 364.165 351.835 362.989 352.352 361.977C352.875 360.96 353.616 360.168 354.577 359.599C355.537 359.026 356.679 358.739 358.003 358.739C359.145 358.739 360.145 358.946 361.003 359.361C361.861 359.776 362.54 360.358 363.04 361.108C363.54 361.858 363.815 362.739 363.866 363.75H360.44C360.344 363.097 360.088 362.571 359.673 362.173C359.264 361.77 358.727 361.568 358.062 361.568C357.5 361.568 357.009 361.722 356.588 362.028C356.173 362.33 355.849 362.77 355.616 363.349C355.384 363.929 355.267 364.631 355.267 365.455C355.267 366.29 355.381 367 355.608 367.585C355.841 368.17 356.168 368.616 356.588 368.923C357.009 369.23 357.5 369.384 358.062 369.384C358.477 369.384 358.849 369.298 359.179 369.128C359.514 368.957 359.79 368.71 360.006 368.386C360.227 368.057 360.372 367.662 360.44 367.202H363.866C363.81 368.202 363.537 369.082 363.048 369.844C362.565 370.599 361.898 371.19 361.045 371.616C360.193 372.043 359.185 372.256 358.02 372.256ZM373.154 358.909V361.636H365.271V358.909H373.154ZM367.06 355.773H370.691V367.977C370.691 368.312 370.742 368.574 370.844 368.761C370.947 368.943 371.089 369.071 371.271 369.145C371.458 369.219 371.674 369.256 371.918 369.256C372.089 369.256 372.259 369.241 372.43 369.213C372.6 369.179 372.731 369.153 372.822 369.136L373.393 371.838C373.211 371.895 372.955 371.96 372.626 372.034C372.296 372.114 371.896 372.162 371.424 372.179C370.549 372.213 369.782 372.097 369.123 371.83C368.469 371.562 367.961 371.148 367.597 370.585C367.234 370.023 367.055 369.312 367.06 368.455V355.773ZM375.519 372V358.909H379.15V372H375.519ZM377.343 357.222C376.803 357.222 376.34 357.043 375.954 356.685C375.573 356.321 375.383 355.886 375.383 355.381C375.383 354.881 375.573 354.452 375.954 354.094C376.34 353.73 376.803 353.548 377.343 353.548C377.883 353.548 378.343 353.73 378.724 354.094C379.11 354.452 379.303 354.881 379.303 355.381C379.303 355.886 379.11 356.321 378.724 356.685C378.343 357.043 377.883 357.222 377.343 357.222ZM394.263 358.909L389.686 372H385.595L381.018 358.909H384.854L387.572 368.276H387.709L390.419 358.909H394.263ZM396.121 372V358.909H399.751V372H396.121ZM397.945 357.222C397.405 357.222 396.942 357.043 396.555 356.685C396.175 356.321 395.984 355.886 395.984 355.381C395.984 354.881 396.175 354.452 396.555 354.094C396.942 353.73 397.405 353.548 397.945 353.548C398.484 353.548 398.945 353.73 399.325 354.094C399.712 354.452 399.905 354.881 399.905 355.381C399.905 355.886 399.712 356.321 399.325 356.685C398.945 357.043 398.484 357.222 397.945 357.222ZM409.623 358.909V361.636H401.739V358.909H409.623ZM403.529 355.773H407.16V367.977C407.16 368.312 407.211 368.574 407.313 368.761C407.415 368.943 407.558 369.071 407.739 369.145C407.927 369.219 408.143 369.256 408.387 369.256C408.558 369.256 408.728 369.241 408.898 369.213C409.069 369.179 409.2 369.153 409.29 369.136L409.862 371.838C409.68 371.895 409.424 371.96 409.094 372.034C408.765 372.114 408.364 372.162 407.893 372.179C407.018 372.213 406.251 372.097 405.592 371.83C404.938 371.562 404.43 371.148 404.066 370.585C403.702 370.023 403.523 369.312 403.529 368.455V355.773ZM414.229 376.909C413.769 376.909 413.337 376.872 412.934 376.798C412.536 376.73 412.207 376.642 411.945 376.534L412.763 373.824C413.19 373.955 413.573 374.026 413.914 374.037C414.261 374.048 414.559 373.969 414.809 373.798C415.065 373.628 415.272 373.338 415.431 372.929L415.644 372.375L410.948 358.909H414.766L417.477 368.523H417.613L420.349 358.909H424.192L419.104 373.415C418.86 374.119 418.528 374.733 418.107 375.256C417.692 375.784 417.167 376.19 416.531 376.474C415.894 376.764 415.127 376.909 414.229 376.909Z" fill="#3D5A80"/>
<path d="M236.184 341.871V339.613C236.184 339.293 236.06 338.986 235.839 338.757C235.618 338.528 235.317 338.395 235 338.387C234.689 338.395 234.392 338.524 234.172 338.746C233.951 338.968 233.824 339.267 233.816 339.581V341.871C227.894 342.186 222.328 344.82 218.304 349.211C214.28 353.602 212.116 359.404 212.272 365.38C212.428 371.356 214.893 377.034 219.142 381.205C223.39 385.376 229.086 387.71 235.016 387.71C240.946 387.71 246.642 385.376 250.891 381.205C255.139 377.034 257.604 371.356 257.76 365.38C257.917 359.404 255.752 353.602 251.728 349.211C247.704 344.82 242.138 342.186 236.216 341.871H236.184ZM235 385.194C230.981 385.194 227.052 383.992 223.711 381.741C220.369 379.491 217.765 376.291 216.227 372.549C214.689 368.806 214.286 364.687 215.07 360.713C215.855 356.74 217.79 353.09 220.632 350.225C223.473 347.361 227.094 345.41 231.036 344.619C234.978 343.829 239.063 344.235 242.776 345.785C246.489 347.335 249.663 349.961 251.896 353.329C254.128 356.698 255.32 360.658 255.32 364.71C255.312 370.14 253.168 375.345 249.359 379.185C245.55 383.024 240.387 385.185 235 385.194Z" fill="#3D5A80"/>
<path d="M251.704 364.097C251.441 364.097 251.189 364.202 251.003 364.39C250.817 364.577 250.712 364.832 250.712 365.097C250.712 365.362 250.817 365.616 251.003 365.804C251.189 365.991 251.441 366.097 251.704 366.097C251.967 366.097 252.219 365.991 252.405 365.804C252.592 365.616 252.696 365.362 252.696 365.097C252.696 364.832 252.592 364.577 252.405 364.39C252.219 364.202 251.967 364.097 251.704 364.097V364.097Z" fill="#3D5A80"/>
<path d="M218.296 364.097C218.033 364.097 217.781 364.202 217.595 364.39C217.408 364.577 217.304 364.832 217.304 365.097C217.304 365.362 217.408 365.616 217.595 365.804C217.781 365.991 218.033 366.097 218.296 366.097C218.559 366.097 218.811 365.991 218.997 365.804C219.183 365.616 219.288 365.362 219.288 365.097C219.288 364.832 219.183 364.577 218.997 364.39C218.811 364.202 218.559 364.097 218.296 364.097V364.097Z" fill="#3D5A80"/>
<path d="M235 382.387C235.548 382.387 235.992 381.939 235.992 381.387C235.992 380.835 235.548 380.387 235 380.387C234.452 380.387 234.008 380.835 234.008 381.387C234.008 381.939 234.452 382.387 235 382.387Z" fill="#3D5A80"/>
<path d="M235 348.71C235.196 348.71 235.388 348.651 235.551 348.541C235.714 348.431 235.841 348.275 235.917 348.092C235.992 347.91 236.011 347.709 235.973 347.515C235.935 347.321 235.84 347.142 235.702 347.003C235.563 346.863 235.386 346.768 235.194 346.729C235.001 346.69 234.802 346.71 234.62 346.786C234.439 346.862 234.284 346.99 234.175 347.154C234.066 347.319 234.008 347.512 234.008 347.71C234.008 347.975 234.113 348.229 234.299 348.417C234.485 348.604 234.737 348.71 235 348.71V348.71Z" fill="#3D5A80"/>
<path d="M218.776 345.677C219.013 345.674 219.245 345.607 219.448 345.484L224.44 342.258C224.679 342.083 224.847 341.826 224.912 341.535C224.977 341.244 224.934 340.939 224.792 340.677C224.708 340.542 224.597 340.425 224.467 340.334C224.337 340.242 224.19 340.178 224.035 340.145C223.879 340.112 223.719 340.11 223.563 340.141C223.408 340.171 223.26 340.233 223.128 340.323L218.136 343.548C217.871 343.726 217.686 344.001 217.621 344.315C217.555 344.628 217.614 344.955 217.784 345.226C217.901 345.376 218.053 345.495 218.225 345.573C218.398 345.652 218.587 345.688 218.776 345.677V345.677Z" fill="#3D5A80"/>
<path d="M245.24 342.226L250.232 345.452C250.435 345.575 250.667 345.641 250.904 345.645C251.157 345.632 251.399 345.54 251.598 345.382C251.796 345.224 251.94 345.007 252.011 344.762C252.081 344.517 252.074 344.256 251.99 344.015C251.907 343.775 251.751 343.566 251.544 343.419L246.552 340.194C246.42 340.104 246.272 340.042 246.117 340.012C245.961 339.981 245.801 339.983 245.645 340.016C245.49 340.049 245.343 340.113 245.213 340.205C245.083 340.296 244.972 340.413 244.888 340.548C244.718 340.819 244.659 341.146 244.725 341.459C244.79 341.773 244.975 342.048 245.24 342.226V342.226Z" fill="#3D5A80"/>
<path d="M233.08 367.839H230.328C231.798 366.566 233.08 365.089 234.136 363.452C234.326 362.905 234.367 362.318 234.255 361.75C234.142 361.183 233.88 360.656 233.496 360.226C233.018 359.672 232.397 359.264 231.701 359.047C231.006 358.83 230.264 358.814 229.56 359C228.874 359.222 228.238 359.579 227.689 360.049C227.139 360.52 226.688 361.095 226.36 361.742C226.226 362.029 226.207 362.358 226.309 362.659C226.41 362.96 226.624 363.21 226.904 363.355C227.051 363.433 227.211 363.48 227.377 363.495C227.542 363.509 227.708 363.49 227.866 363.439C228.024 363.388 228.17 363.306 228.296 363.197C228.422 363.089 228.525 362.956 228.6 362.806C228.931 362.128 229.502 361.599 230.2 361.323C230.481 361.227 230.784 361.218 231.069 361.299C231.355 361.38 231.609 361.545 231.8 361.774C231.867 361.892 231.903 362.025 231.903 362.161C231.903 362.297 231.867 362.431 231.8 362.548C230.156 364.579 228.335 366.457 226.36 368.161C226.175 368.322 226.044 368.536 225.985 368.774C225.926 369.013 225.941 369.264 226.029 369.493C226.116 369.723 226.272 369.919 226.474 370.056C226.677 370.193 226.916 370.264 227.16 370.258H233.08C233.394 370.258 233.695 370.132 233.917 369.908C234.139 369.685 234.264 369.381 234.264 369.064C234.264 368.745 234.14 368.438 233.919 368.209C233.698 367.98 233.397 367.847 233.08 367.839V367.839Z" fill="#3D5A80"/>
<path d="M243.768 362.226C243.537 362.01 243.234 361.891 242.92 361.891C242.606 361.891 242.303 362.01 242.072 362.226L239.96 364.355L237.848 362.226C237.617 362.01 237.314 361.891 237 361.891C236.686 361.891 236.383 362.01 236.152 362.226C236.039 362.337 235.949 362.47 235.887 362.617C235.826 362.764 235.794 362.921 235.794 363.081C235.794 363.24 235.826 363.398 235.887 363.545C235.949 363.691 236.039 363.824 236.152 363.935L238.264 366.064L236.152 368.194C236.039 368.305 235.949 368.438 235.887 368.584C235.826 368.731 235.794 368.889 235.794 369.048C235.794 369.208 235.826 369.365 235.887 369.512C235.949 369.659 236.039 369.792 236.152 369.903C236.257 370.019 236.386 370.111 236.53 370.172C236.673 370.233 236.828 370.262 236.984 370.258C237.145 370.263 237.304 370.234 237.453 370.173C237.602 370.112 237.737 370.02 237.848 369.903L239.96 367.774L242.072 369.903C242.177 370.019 242.306 370.111 242.45 370.172C242.593 370.233 242.748 370.262 242.904 370.258C243.065 370.263 243.224 370.234 243.373 370.173C243.522 370.112 243.657 370.02 243.768 369.903C243.982 369.671 244.1 369.365 244.1 369.048C244.1 368.731 243.982 368.426 243.768 368.194L241.656 366.064L243.768 363.935C243.982 363.703 244.1 363.398 244.1 363.081C244.1 362.764 243.982 362.458 243.768 362.226V362.226Z" fill="#3D5A80"/>
<rect x="197" y="419" width="237" height="70" rx="15" fill="white" fill-opacity="0.5"/>
<path d="M298.557 450.273C298.557 452.176 298.196 453.795 297.474 455.131C296.759 456.466 295.781 457.486 294.543 458.19C293.31 458.889 291.923 459.239 290.384 459.239C288.832 459.239 287.44 458.886 286.207 458.182C284.974 457.477 284 456.457 283.284 455.122C282.568 453.787 282.21 452.17 282.21 450.273C282.21 448.369 282.568 446.75 283.284 445.415C284 444.08 284.974 443.062 286.207 442.364C287.44 441.659 288.832 441.307 290.384 441.307C291.923 441.307 293.31 441.659 294.543 442.364C295.781 443.062 296.759 444.08 297.474 445.415C298.196 446.75 298.557 448.369 298.557 450.273ZM294.815 450.273C294.815 449.04 294.631 448 294.261 447.153C293.898 446.307 293.384 445.665 292.719 445.227C292.054 444.79 291.276 444.571 290.384 444.571C289.491 444.571 288.713 444.79 288.048 445.227C287.384 445.665 286.866 446.307 286.497 447.153C286.134 448 285.952 449.04 285.952 450.273C285.952 451.506 286.134 452.545 286.497 453.392C286.866 454.239 287.384 454.881 288.048 455.318C288.713 455.756 289.491 455.974 290.384 455.974C291.276 455.974 292.054 455.756 292.719 455.318C293.384 454.881 293.898 454.239 294.261 453.392C294.631 452.545 294.815 451.506 294.815 450.273ZM304.853 451.432V459H301.222V445.909H304.683V448.219H304.836C305.126 447.457 305.612 446.855 306.293 446.412C306.975 445.963 307.802 445.739 308.773 445.739C309.683 445.739 310.475 445.938 311.151 446.335C311.827 446.733 312.353 447.301 312.728 448.04C313.103 448.773 313.29 449.648 313.29 450.665V459H309.66V451.312C309.665 450.511 309.461 449.886 309.046 449.438C308.631 448.983 308.06 448.756 307.333 448.756C306.844 448.756 306.413 448.861 306.038 449.071C305.668 449.281 305.379 449.588 305.168 449.991C304.964 450.389 304.859 450.869 304.853 451.432ZM319.783 441.545V459H316.152V441.545H319.783ZM322.691 459V445.909H326.322V459H322.691ZM324.515 444.222C323.975 444.222 323.512 444.043 323.126 443.685C322.745 443.321 322.555 442.886 322.555 442.381C322.555 441.881 322.745 441.452 323.126 441.094C323.512 440.73 323.975 440.548 324.515 440.548C325.055 440.548 325.515 440.73 325.896 441.094C326.282 441.452 326.475 441.881 326.475 442.381C326.475 442.886 326.282 443.321 325.896 443.685C325.515 444.043 325.055 444.222 324.515 444.222ZM332.861 451.432V459H329.23V445.909H332.69V448.219H332.844C333.134 447.457 333.619 446.855 334.301 446.412C334.983 445.963 335.81 445.739 336.781 445.739C337.69 445.739 338.483 445.938 339.159 446.335C339.835 446.733 340.361 447.301 340.736 448.04C341.111 448.773 341.298 449.648 341.298 450.665V459H337.668V451.312C337.673 450.511 337.469 449.886 337.054 449.438C336.639 448.983 336.068 448.756 335.341 448.756C334.852 448.756 334.42 448.861 334.045 449.071C333.676 449.281 333.386 449.588 333.176 449.991C332.972 450.389 332.866 450.869 332.861 451.432ZM350.126 459.256C348.779 459.256 347.62 458.983 346.648 458.438C345.683 457.886 344.938 457.108 344.415 456.102C343.893 455.091 343.631 453.895 343.631 452.514C343.631 451.168 343.893 449.986 344.415 448.969C344.938 447.952 345.674 447.159 346.623 446.591C347.577 446.023 348.697 445.739 349.981 445.739C350.844 445.739 351.648 445.878 352.393 446.156C353.143 446.429 353.796 446.841 354.353 447.392C354.915 447.943 355.353 448.636 355.665 449.472C355.978 450.301 356.134 451.273 356.134 452.386V453.384H345.08V451.134H352.717C352.717 450.611 352.603 450.148 352.376 449.744C352.148 449.341 351.833 449.026 351.43 448.798C351.032 448.565 350.569 448.449 350.04 448.449C349.489 448.449 349.001 448.577 348.575 448.832C348.154 449.082 347.825 449.42 347.586 449.847C347.347 450.267 347.225 450.736 347.219 451.253V453.392C347.219 454.04 347.339 454.599 347.577 455.071C347.822 455.543 348.165 455.906 348.609 456.162C349.052 456.418 349.577 456.545 350.185 456.545C350.589 456.545 350.958 456.489 351.293 456.375C351.629 456.261 351.915 456.091 352.154 455.864C352.393 455.636 352.575 455.358 352.7 455.028L356.058 455.25C355.887 456.057 355.538 456.761 355.009 457.364C354.487 457.96 353.81 458.426 352.981 458.761C352.157 459.091 351.205 459.256 350.126 459.256ZM379.527 447.656H375.794C375.726 447.173 375.587 446.744 375.376 446.369C375.166 445.989 374.896 445.665 374.567 445.398C374.237 445.131 373.857 444.926 373.425 444.784C372.999 444.642 372.536 444.571 372.036 444.571C371.132 444.571 370.345 444.795 369.675 445.244C369.004 445.687 368.484 446.335 368.115 447.188C367.746 448.034 367.561 449.062 367.561 450.273C367.561 451.517 367.746 452.562 368.115 453.409C368.49 454.256 369.013 454.895 369.683 455.327C370.354 455.759 371.129 455.974 372.01 455.974C372.504 455.974 372.962 455.909 373.382 455.778C373.808 455.648 374.186 455.457 374.516 455.207C374.845 454.952 375.118 454.642 375.334 454.278C375.555 453.915 375.709 453.5 375.794 453.034L379.527 453.051C379.43 453.852 379.189 454.625 378.803 455.369C378.422 456.108 377.908 456.77 377.26 457.355C376.618 457.935 375.851 458.395 374.959 458.736C374.072 459.071 373.07 459.239 371.95 459.239C370.393 459.239 369.001 458.886 367.774 458.182C366.553 457.477 365.587 456.457 364.876 455.122C364.172 453.787 363.82 452.17 363.82 450.273C363.82 448.369 364.178 446.75 364.893 445.415C365.609 444.08 366.581 443.062 367.808 442.364C369.036 441.659 370.416 441.307 371.95 441.307C372.962 441.307 373.899 441.449 374.763 441.733C375.632 442.017 376.402 442.432 377.072 442.977C377.743 443.517 378.288 444.179 378.709 444.963C379.135 445.747 379.408 446.645 379.527 447.656ZM385.736 451.432V459H382.105V441.545H385.634V448.219H385.787C386.082 447.446 386.56 446.841 387.219 446.403C387.878 445.96 388.705 445.739 389.699 445.739C390.608 445.739 391.401 445.938 392.077 446.335C392.759 446.727 393.287 447.293 393.662 448.031C394.043 448.764 394.23 449.642 394.224 450.665V459H390.594V451.312C390.599 450.506 390.395 449.878 389.98 449.429C389.571 448.98 388.997 448.756 388.259 448.756C387.764 448.756 387.327 448.861 386.946 449.071C386.571 449.281 386.276 449.588 386.06 449.991C385.849 450.389 385.741 450.869 385.736 451.432ZM400.815 459.247C399.979 459.247 399.235 459.102 398.582 458.812C397.928 458.517 397.411 458.082 397.031 457.509C396.656 456.929 396.468 456.207 396.468 455.344C396.468 454.616 396.602 454.006 396.869 453.511C397.136 453.017 397.499 452.619 397.96 452.318C398.42 452.017 398.942 451.79 399.528 451.636C400.119 451.483 400.738 451.375 401.386 451.312C402.147 451.233 402.761 451.159 403.227 451.091C403.692 451.017 404.031 450.909 404.241 450.767C404.451 450.625 404.556 450.415 404.556 450.136V450.085C404.556 449.545 404.386 449.128 404.045 448.832C403.71 448.537 403.232 448.389 402.613 448.389C401.96 448.389 401.44 448.534 401.053 448.824C400.667 449.108 400.411 449.466 400.286 449.898L396.928 449.625C397.099 448.83 397.434 448.142 397.934 447.562C398.434 446.977 399.079 446.528 399.869 446.216C400.664 445.898 401.585 445.739 402.63 445.739C403.357 445.739 404.053 445.824 404.718 445.994C405.388 446.165 405.982 446.429 406.499 446.787C407.022 447.145 407.434 447.605 407.735 448.168C408.036 448.724 408.187 449.392 408.187 450.17V459H404.744V457.185H404.641C404.431 457.594 404.15 457.955 403.798 458.267C403.445 458.574 403.022 458.815 402.528 458.991C402.033 459.162 401.462 459.247 400.815 459.247ZM401.854 456.741C402.388 456.741 402.86 456.636 403.269 456.426C403.678 456.21 403.999 455.92 404.232 455.557C404.465 455.193 404.582 454.781 404.582 454.321V452.932C404.468 453.006 404.312 453.074 404.113 453.136C403.92 453.193 403.701 453.247 403.457 453.298C403.212 453.344 402.968 453.386 402.724 453.426C402.479 453.46 402.258 453.491 402.059 453.52C401.633 453.582 401.261 453.682 400.942 453.818C400.624 453.955 400.377 454.139 400.201 454.372C400.025 454.599 399.937 454.884 399.937 455.224C399.937 455.719 400.116 456.097 400.474 456.358C400.837 456.614 401.298 456.741 401.854 456.741ZM417.967 445.909V448.636H410.083V445.909H417.967ZM411.873 442.773H415.504V454.977C415.504 455.312 415.555 455.574 415.657 455.761C415.759 455.943 415.901 456.071 416.083 456.145C416.271 456.219 416.487 456.256 416.731 456.256C416.901 456.256 417.072 456.241 417.242 456.213C417.413 456.179 417.543 456.153 417.634 456.136L418.205 458.838C418.023 458.895 417.768 458.96 417.438 459.034C417.109 459.114 416.708 459.162 416.237 459.179C415.362 459.213 414.594 459.097 413.935 458.83C413.282 458.562 412.773 458.148 412.41 457.585C412.046 457.023 411.867 456.312 411.873 455.455V442.773Z" fill="#3D5A80"/>
<path d="M256.139 434.373C255.606 433.926 254.962 433.632 254.274 433.523C253.587 433.414 252.883 433.494 252.238 433.755L212.861 449.516C212.287 449.754 211.797 450.157 211.451 450.674C211.106 451.191 210.922 451.799 210.922 452.42C210.922 453.042 211.106 453.649 211.451 454.166C211.797 454.683 212.287 455.087 212.861 455.325L215.405 456.373C215.824 456.551 216.297 456.555 216.719 456.384C217.141 456.213 217.478 455.882 217.656 455.462C217.744 455.254 217.789 455.03 217.79 454.804C217.79 454.577 217.746 454.353 217.66 454.144C217.574 453.935 217.447 453.745 217.287 453.585C217.127 453.424 216.937 453.297 216.728 453.211L214.838 452.437L253.527 436.969C253.586 436.932 253.654 436.913 253.724 436.913C253.794 436.913 253.862 436.932 253.922 436.969C253.978 437.016 254.02 437.078 254.045 437.148C254.069 437.217 254.074 437.292 254.059 437.364L246.995 470.33C246.972 470.447 246.919 470.556 246.84 470.647C246.762 470.737 246.661 470.806 246.548 470.845C246.438 470.889 246.317 470.903 246.199 470.885C246.081 470.867 245.971 470.817 245.878 470.742L232.128 460.017L245.586 446.422C245.873 446.124 246.044 445.731 246.065 445.318C246.086 444.904 245.958 444.497 245.702 444.17C245.447 443.844 245.083 443.621 244.676 443.542C244.269 443.463 243.848 443.533 243.489 443.741L223.758 455.428C223.539 455.527 223.343 455.671 223.183 455.851C223.023 456.03 222.902 456.241 222.829 456.47C222.755 456.699 222.731 456.941 222.757 457.18C222.783 457.419 222.859 457.65 222.98 457.858C223.101 458.066 223.264 458.246 223.459 458.387C223.654 458.528 223.876 458.627 224.111 458.676C224.347 458.726 224.59 458.725 224.825 458.675C225.06 458.625 225.282 458.526 225.477 458.384L233.778 453.486L229.739 457.594C229.37 457.941 229.081 458.365 228.895 458.837C228.709 459.309 228.63 459.816 228.663 460.322C228.696 460.828 228.84 461.32 229.085 461.764C229.331 462.207 229.672 462.591 230.083 462.887L243.833 473.458C244.557 474.016 245.445 474.319 246.359 474.317C246.846 474.314 247.329 474.226 247.786 474.059C248.443 473.824 249.028 473.423 249.485 472.897C249.942 472.37 250.257 471.735 250.398 471.051L257.411 438.12C257.56 437.439 257.52 436.73 257.296 436.07C257.072 435.41 256.672 434.823 256.139 434.373V434.373Z" fill="#3D5A80"/>
<rect x="197" y="509" width="237" height="70" rx="15" fill="white" fill-opacity="0.5"/>
<path d="M249.096 570.28C246.109 571.393 242.876 572 239.5 572C224.312 572 212 559.688 212 544.5C212 529.312 224.312 517 239.5 517C254.688 517 267 529.312 267 544.5C267 554.5 261.662 563.254 253.68 568.067" stroke="#3D5A80" stroke-width="3" stroke-miterlimit="10" stroke-linecap="round" stroke-linejoin="round"/>
<path d="M249.232 539.651L254.309 535.615V552.538L249.232 548.789" stroke="#3D5A80" stroke-width="3" stroke-miterlimit="10" stroke-linecap="round" stroke-linejoin="round"/>
<path d="M238.231 552.538H228.215C228.215 552.538 224.693 552.538 224.693 548.913C224.693 545.918 224.693 536.461 224.693 536.461H228.434" stroke="#3D5A80" stroke-width="3" stroke-miterlimit="10" stroke-linecap="round" stroke-linejoin="round"/>
<path d="M232.307 536.461H242.37C242.37 536.461 245.846 536.461 245.846 539.928C245.846 543.08 245.846 552.538 245.846 552.538H242.413" stroke="#3D5A80" stroke-width="3" stroke-miterlimit="10" stroke-linecap="round" stroke-linejoin="round"/>
<path d="M291.67 534.545L295.889 547.807H296.051L300.278 534.545H304.369L298.352 552H293.597L287.571 534.545H291.67ZM306.402 552V538.909H310.033V552H306.402ZM308.226 537.222C307.686 537.222 307.223 537.043 306.837 536.685C306.456 536.321 306.266 535.886 306.266 535.381C306.266 534.881 306.456 534.452 306.837 534.094C307.223 533.73 307.686 533.548 308.226 533.548C308.766 533.548 309.226 533.73 309.607 534.094C309.993 534.452 310.186 534.881 310.186 535.381C310.186 535.886 309.993 536.321 309.607 536.685C309.226 537.043 308.766 537.222 308.226 537.222ZM317.765 552.213C316.771 552.213 315.87 551.957 315.063 551.446C314.262 550.929 313.626 550.17 313.154 549.17C312.688 548.165 312.455 546.932 312.455 545.472C312.455 543.972 312.697 542.724 313.18 541.73C313.663 540.73 314.305 539.983 315.106 539.489C315.913 538.989 316.796 538.739 317.756 538.739C318.489 538.739 319.1 538.864 319.589 539.114C320.083 539.358 320.481 539.665 320.782 540.034C321.089 540.398 321.322 540.756 321.481 541.108H321.592V534.545H325.214V552H321.634V549.903H321.481C321.31 550.267 321.069 550.628 320.756 550.986C320.45 551.338 320.049 551.631 319.555 551.864C319.066 552.097 318.469 552.213 317.765 552.213ZM318.915 549.324C319.501 549.324 319.995 549.165 320.398 548.847C320.808 548.523 321.12 548.071 321.336 547.491C321.558 546.912 321.668 546.233 321.668 545.455C321.668 544.676 321.56 544 321.344 543.426C321.129 542.852 320.816 542.409 320.407 542.097C319.998 541.784 319.501 541.628 318.915 541.628C318.319 541.628 317.816 541.79 317.407 542.114C316.998 542.437 316.688 542.886 316.478 543.46C316.268 544.034 316.163 544.699 316.163 545.455C316.163 546.216 316.268 546.889 316.478 547.474C316.694 548.054 317.004 548.509 317.407 548.838C317.816 549.162 318.319 549.324 318.915 549.324ZM334.165 552.256C332.818 552.256 331.659 551.983 330.688 551.438C329.722 550.886 328.977 550.108 328.455 549.102C327.932 548.091 327.67 546.895 327.67 545.514C327.67 544.168 327.932 542.986 328.455 541.969C328.977 540.952 329.713 540.159 330.662 539.591C331.616 539.023 332.736 538.739 334.02 538.739C334.884 538.739 335.688 538.878 336.432 539.156C337.182 539.429 337.835 539.841 338.392 540.392C338.955 540.943 339.392 541.636 339.705 542.472C340.017 543.301 340.173 544.273 340.173 545.386V546.384H329.119V544.134H336.756C336.756 543.611 336.642 543.148 336.415 542.744C336.188 542.341 335.872 542.026 335.469 541.798C335.071 541.565 334.608 541.449 334.08 541.449C333.528 541.449 333.04 541.577 332.614 541.832C332.193 542.082 331.864 542.42 331.625 542.847C331.386 543.267 331.264 543.736 331.259 544.253V546.392C331.259 547.04 331.378 547.599 331.616 548.071C331.861 548.543 332.205 548.906 332.648 549.162C333.091 549.418 333.616 549.545 334.224 549.545C334.628 549.545 334.997 549.489 335.332 549.375C335.668 549.261 335.955 549.091 336.193 548.864C336.432 548.636 336.614 548.358 336.739 548.028L340.097 548.25C339.926 549.057 339.577 549.761 339.048 550.364C338.526 550.96 337.849 551.426 337.02 551.761C336.196 552.091 335.244 552.256 334.165 552.256ZM348.457 552.256C347.134 552.256 345.989 551.974 345.023 551.412C344.063 550.844 343.321 550.054 342.798 549.043C342.276 548.026 342.014 546.847 342.014 545.506C342.014 544.153 342.276 542.972 342.798 541.96C343.321 540.943 344.063 540.153 345.023 539.591C345.989 539.023 347.134 538.739 348.457 538.739C349.781 538.739 350.923 539.023 351.884 539.591C352.849 540.153 353.594 540.943 354.116 541.96C354.639 542.972 354.901 544.153 354.901 545.506C354.901 546.847 354.639 548.026 354.116 549.043C353.594 550.054 352.849 550.844 351.884 551.412C350.923 551.974 349.781 552.256 348.457 552.256ZM348.474 549.443C349.077 549.443 349.58 549.273 349.983 548.932C350.386 548.585 350.69 548.114 350.895 547.517C351.105 546.92 351.21 546.241 351.21 545.48C351.21 544.719 351.105 544.04 350.895 543.443C350.69 542.847 350.386 542.375 349.983 542.028C349.58 541.682 349.077 541.509 348.474 541.509C347.866 541.509 347.355 541.682 346.94 542.028C346.531 542.375 346.222 542.847 346.011 543.443C345.807 544.04 345.705 544.719 345.705 545.48C345.705 546.241 345.807 546.92 346.011 547.517C346.222 548.114 346.531 548.585 346.94 548.932C347.355 549.273 347.866 549.443 348.474 549.443ZM378.285 540.656H374.552C374.484 540.173 374.344 539.744 374.134 539.369C373.924 538.989 373.654 538.665 373.325 538.398C372.995 538.131 372.614 537.926 372.183 537.784C371.756 537.642 371.293 537.571 370.793 537.571C369.89 537.571 369.103 537.795 368.433 538.244C367.762 538.687 367.242 539.335 366.873 540.188C366.504 541.034 366.319 542.062 366.319 543.273C366.319 544.517 366.504 545.562 366.873 546.409C367.248 547.256 367.771 547.895 368.441 548.327C369.112 548.759 369.887 548.974 370.768 548.974C371.262 548.974 371.719 548.909 372.14 548.778C372.566 548.648 372.944 548.457 373.273 548.207C373.603 547.952 373.876 547.642 374.092 547.278C374.313 546.915 374.467 546.5 374.552 546.034L378.285 546.051C378.188 546.852 377.947 547.625 377.56 548.369C377.18 549.108 376.665 549.77 376.018 550.355C375.376 550.935 374.609 551.395 373.717 551.736C372.83 552.071 371.827 552.239 370.708 552.239C369.151 552.239 367.759 551.886 366.532 551.182C365.31 550.477 364.344 549.457 363.634 548.122C362.93 546.787 362.577 545.17 362.577 543.273C362.577 541.369 362.935 539.75 363.651 538.415C364.367 537.08 365.339 536.062 366.566 535.364C367.793 534.659 369.174 534.307 370.708 534.307C371.719 534.307 372.657 534.449 373.521 534.733C374.39 535.017 375.16 535.432 375.83 535.977C376.501 536.517 377.046 537.179 377.467 537.963C377.893 538.747 378.165 539.645 378.285 540.656ZM384.596 552.247C383.761 552.247 383.016 552.102 382.363 551.812C381.71 551.517 381.192 551.082 380.812 550.509C380.437 549.929 380.249 549.207 380.249 548.344C380.249 547.616 380.383 547.006 380.65 546.511C380.917 546.017 381.281 545.619 381.741 545.318C382.201 545.017 382.724 544.79 383.309 544.636C383.9 544.483 384.519 544.375 385.167 544.312C385.928 544.233 386.542 544.159 387.008 544.091C387.474 544.017 387.812 543.909 388.022 543.767C388.232 543.625 388.337 543.415 388.337 543.136V543.085C388.337 542.545 388.167 542.128 387.826 541.832C387.491 541.537 387.013 541.389 386.394 541.389C385.741 541.389 385.221 541.534 384.835 541.824C384.448 542.108 384.192 542.466 384.067 542.898L380.71 542.625C380.88 541.83 381.215 541.142 381.715 540.562C382.215 539.977 382.86 539.528 383.65 539.216C384.445 538.898 385.366 538.739 386.411 538.739C387.138 538.739 387.835 538.824 388.499 538.994C389.17 539.165 389.763 539.429 390.281 539.787C390.803 540.145 391.215 540.605 391.516 541.168C391.817 541.724 391.968 542.392 391.968 543.17V552H388.525V550.185H388.423C388.212 550.594 387.931 550.955 387.579 551.267C387.227 551.574 386.803 551.815 386.309 551.991C385.815 552.162 385.244 552.247 384.596 552.247ZM385.636 549.741C386.17 549.741 386.641 549.636 387.05 549.426C387.46 549.21 387.781 548.92 388.013 548.557C388.246 548.193 388.363 547.781 388.363 547.321V545.932C388.249 546.006 388.093 546.074 387.894 546.136C387.701 546.193 387.482 546.247 387.238 546.298C386.994 546.344 386.749 546.386 386.505 546.426C386.261 546.46 386.039 546.491 385.84 546.52C385.414 546.582 385.042 546.682 384.724 546.818C384.406 546.955 384.158 547.139 383.982 547.372C383.806 547.599 383.718 547.884 383.718 548.224C383.718 548.719 383.897 549.097 384.255 549.358C384.619 549.614 385.079 549.741 385.636 549.741ZM398.415 534.545V552H394.785V534.545H398.415ZM404.955 534.545V552H401.324V534.545H404.955Z" fill="#3D5A80"/>
<rect x="197" y="598" width="237" height="70" rx="15" fill="white" fill-opacity="0.5"/>
<path d="M300.517 642V624.545H312.074V627.588H304.207V631.747H311.307V634.79H304.207V642H300.517ZM314.277 642V628.909H317.797V631.193H317.933C318.172 630.381 318.572 629.767 319.135 629.352C319.697 628.932 320.345 628.722 321.078 628.722C321.26 628.722 321.456 628.733 321.666 628.756C321.876 628.778 322.061 628.81 322.22 628.849V632.071C322.05 632.02 321.814 631.974 321.513 631.935C321.212 631.895 320.936 631.875 320.686 631.875C320.152 631.875 319.675 631.991 319.254 632.224C318.839 632.452 318.51 632.77 318.266 633.179C318.027 633.588 317.908 634.06 317.908 634.594V642H314.277ZM329.454 642.256C328.107 642.256 326.948 641.983 325.977 641.438C325.011 640.886 324.266 640.108 323.744 639.102C323.221 638.091 322.96 636.895 322.96 635.514C322.96 634.168 323.221 632.986 323.744 631.969C324.266 630.952 325.002 630.159 325.951 629.591C326.906 629.023 328.025 628.739 329.309 628.739C330.173 628.739 330.977 628.878 331.721 629.156C332.471 629.429 333.124 629.841 333.681 630.392C334.244 630.943 334.681 631.636 334.994 632.472C335.306 633.301 335.462 634.273 335.462 635.386V636.384H324.408V634.134H332.045C332.045 633.611 331.931 633.148 331.704 632.744C331.477 632.341 331.161 632.026 330.758 631.798C330.36 631.565 329.897 631.449 329.369 631.449C328.817 631.449 328.329 631.577 327.903 631.832C327.482 632.082 327.153 632.42 326.914 632.847C326.675 633.267 326.553 633.736 326.548 634.253V636.392C326.548 637.04 326.667 637.599 326.906 638.071C327.15 638.543 327.494 638.906 327.937 639.162C328.38 639.418 328.906 639.545 329.513 639.545C329.917 639.545 330.286 639.489 330.621 639.375C330.957 639.261 331.244 639.091 331.482 638.864C331.721 638.636 331.903 638.358 332.028 638.028L335.386 638.25C335.215 639.057 334.866 639.761 334.337 640.364C333.815 640.96 333.138 641.426 332.309 641.761C331.485 642.091 330.533 642.256 329.454 642.256ZM343.798 642.256C342.451 642.256 341.292 641.983 340.32 641.438C339.354 640.886 338.61 640.108 338.087 639.102C337.565 638.091 337.303 636.895 337.303 635.514C337.303 634.168 337.565 632.986 338.087 631.969C338.61 630.952 339.346 630.159 340.295 629.591C341.249 629.023 342.369 628.739 343.653 628.739C344.516 628.739 345.32 628.878 346.065 629.156C346.815 629.429 347.468 629.841 348.025 630.392C348.587 630.943 349.025 631.636 349.337 632.472C349.65 633.301 349.806 634.273 349.806 635.386V636.384H338.752V634.134H346.388C346.388 633.611 346.275 633.148 346.048 632.744C345.82 632.341 345.505 632.026 345.102 631.798C344.704 631.565 344.241 631.449 343.712 631.449C343.161 631.449 342.673 631.577 342.246 631.832C341.826 632.082 341.496 632.42 341.258 632.847C341.019 633.267 340.897 633.736 340.891 634.253V636.392C340.891 637.04 341.011 637.599 341.249 638.071C341.494 638.543 341.837 638.906 342.281 639.162C342.724 639.418 343.249 639.545 343.857 639.545C344.261 639.545 344.63 639.489 344.965 639.375C345.3 639.261 345.587 639.091 345.826 638.864C346.065 638.636 346.246 638.358 346.371 638.028L349.729 638.25C349.559 639.057 349.21 639.761 348.681 640.364C348.158 640.96 347.482 641.426 346.653 641.761C345.829 642.091 344.877 642.256 343.798 642.256ZM357.73 646.909V628.909H361.31V631.108H361.472C361.631 630.756 361.861 630.398 362.162 630.034C362.469 629.665 362.866 629.358 363.355 629.114C363.849 628.864 364.463 628.739 365.196 628.739C366.151 628.739 367.031 628.989 367.838 629.489C368.645 629.983 369.29 630.73 369.773 631.73C370.256 632.724 370.497 633.972 370.497 635.472C370.497 636.932 370.261 638.165 369.79 639.17C369.324 640.17 368.688 640.929 367.881 641.446C367.08 641.957 366.182 642.213 365.188 642.213C364.483 642.213 363.884 642.097 363.389 641.864C362.901 641.631 362.5 641.338 362.188 640.986C361.875 640.628 361.636 640.267 361.472 639.903H361.361V646.909H357.73ZM361.284 635.455C361.284 636.233 361.392 636.912 361.608 637.491C361.824 638.071 362.136 638.523 362.545 638.847C362.955 639.165 363.452 639.324 364.037 639.324C364.628 639.324 365.128 639.162 365.537 638.838C365.946 638.509 366.256 638.054 366.466 637.474C366.682 636.889 366.79 636.216 366.79 635.455C366.79 634.699 366.685 634.034 366.474 633.46C366.264 632.886 365.955 632.437 365.545 632.114C365.136 631.79 364.634 631.628 364.037 631.628C363.446 631.628 362.946 631.784 362.537 632.097C362.134 632.409 361.824 632.852 361.608 633.426C361.392 634 361.284 634.676 361.284 635.455ZM376.548 624.545V642H372.918V624.545H376.548ZM383.19 642.247C382.354 642.247 381.61 642.102 380.957 641.812C380.303 641.517 379.786 641.082 379.406 640.509C379.031 639.929 378.843 639.207 378.843 638.344C378.843 637.616 378.977 637.006 379.244 636.511C379.511 636.017 379.874 635.619 380.335 635.318C380.795 635.017 381.317 634.79 381.903 634.636C382.494 634.483 383.113 634.375 383.761 634.312C384.522 634.233 385.136 634.159 385.602 634.091C386.067 634.017 386.406 633.909 386.616 633.767C386.826 633.625 386.931 633.415 386.931 633.136V633.085C386.931 632.545 386.761 632.128 386.42 631.832C386.085 631.537 385.607 631.389 384.988 631.389C384.335 631.389 383.815 631.534 383.428 631.824C383.042 632.108 382.786 632.466 382.661 632.898L379.303 632.625C379.474 631.83 379.809 631.142 380.309 630.562C380.809 629.977 381.454 629.528 382.244 629.216C383.039 628.898 383.96 628.739 385.005 628.739C385.732 628.739 386.428 628.824 387.093 628.994C387.763 629.165 388.357 629.429 388.874 629.787C389.397 630.145 389.809 630.605 390.11 631.168C390.411 631.724 390.562 632.392 390.562 633.17V642H387.119V640.185H387.016C386.806 640.594 386.525 640.955 386.173 641.267C385.82 641.574 385.397 641.815 384.903 641.991C384.408 642.162 383.837 642.247 383.19 642.247ZM384.229 639.741C384.763 639.741 385.235 639.636 385.644 639.426C386.053 639.21 386.374 638.92 386.607 638.557C386.84 638.193 386.957 637.781 386.957 637.321V635.932C386.843 636.006 386.687 636.074 386.488 636.136C386.295 636.193 386.076 636.247 385.832 636.298C385.587 636.344 385.343 636.386 385.099 636.426C384.854 636.46 384.633 636.491 384.434 636.52C384.008 636.582 383.636 636.682 383.317 636.818C382.999 636.955 382.752 637.139 382.576 637.372C382.4 637.599 382.312 637.884 382.312 638.224C382.312 638.719 382.491 639.097 382.849 639.358C383.212 639.614 383.673 639.741 384.229 639.741ZM397.009 634.432V642H393.379V628.909H396.839V631.219H396.992C397.282 630.457 397.768 629.855 398.45 629.412C399.131 628.963 399.958 628.739 400.93 628.739C401.839 628.739 402.631 628.938 403.308 629.335C403.984 629.733 404.509 630.301 404.884 631.04C405.259 631.773 405.447 632.648 405.447 633.665V642H401.816V634.312C401.822 633.511 401.617 632.886 401.202 632.438C400.788 631.983 400.217 631.756 399.489 631.756C399.001 631.756 398.569 631.861 398.194 632.071C397.825 632.281 397.535 632.588 397.325 632.991C397.12 633.389 397.015 633.869 397.009 634.432Z" fill="#3D5A80"/>
<path d="M240.5 603.848C224.149 603.848 210.848 617.151 210.848 633.501C210.848 649.851 224.149 663.152 240.5 663.152C256.85 663.152 270.152 649.851 270.152 633.501C270.152 617.151 256.85 603.848 240.5 603.848ZM240.5 658.474C226.729 658.474 215.525 647.271 215.525 633.501C215.525 619.729 226.729 608.525 240.5 608.525C254.271 608.525 265.475 619.729 265.475 633.501C265.475 647.271 254.271 658.474 240.5 658.474Z" fill="#3D5A80"/>
<path d="M235.811 627.69C235.811 625.814 238.555 625.493 240.935 625.493C243.178 625.493 246.243 626.545 248.806 627.873L249.308 622.703C248.026 621.97 245.053 621.1 242.033 620.919L242.765 615.656H237.869L238.602 620.919C232.288 621.513 230.229 625.173 230.229 628.239C230.229 635.971 244.64 634.325 244.64 639.082C244.64 640.868 242.949 641.507 239.974 641.507C235.948 641.507 232.927 640.09 231.373 638.625L230.594 644.436C232.06 645.305 235.032 646.083 238.602 646.267L237.869 651.346H242.765L242.033 646.22C249.445 645.579 250.772 641.644 250.772 639.037C250.772 629.841 235.811 632.127 235.811 627.69Z" fill="#3D5A80"/>
<defs>
<filter id="filter0_f_750_3" x="-38" y="113" width="676" height="682" filterUnits="userSpaceOnUse" color-interpolation-filters="sRGB">
<feFlood flood-opacity="0" result="BackgroundImageFix"/>
<feBlend mode="normal" in="SourceGraphic" in2="BackgroundImageFix" result="shape"/>
<feGaussianBlur stdDeviation="86.5" result="effect1_foregroundBlur_750_3"/>
</filter>
<filter id="filter1_bd_750_3" x="143" y="157" width="344" height="593" filterUnits="userSpaceOnUse" color-interpolation-filters="sRGB">
<feFlood flood-opacity="0" result="BackgroundImageFix"/>
<feGaussianBlur in="BackgroundImageFix" stdDeviation="20"/>
<feComposite in2="SourceAlpha" operator="in" result="effect1_backgroundBlur_750_3"/>
<feColorMatrix in="SourceAlpha" type="matrix" values="0 0 0 0 0 0 0 0 0 0 0 0 0 0 0 0 0 0 127 0" result="hardAlpha"/>
<feMorphology radius="1" operator="dilate" in="SourceAlpha" result="effect2_dropShadow_750_3"/>
<feOffset dy="4"/>
<feGaussianBlur stdDeviation="12"/>
<feComposite in2="hardAlpha" operator="out"/>
<feColorMatrix type="matrix" values="0 0 0 0 0 0 0 0 0 0 0 0 0 0 0 0 0 0 0.2 0"/>
<feBlend mode="normal" in2="effect1_backgroundBlur_750_3" result="effect2_dropShadow_750_3"/>
<feBlend mode="normal" in="SourceGraphic" in2="effect2_dropShadow_750_3" result="shape"/>
</filter>
<linearGradient id="paint0_linear_750_3" x1="315" y1="197" x2="315" y2="710" gradientUnits="userSpaceOnUse">
<stop stop-color="white" stop-opacity="0.51"/>
<stop offset="1" stop-color="white" stop-opacity="0.1"/>
</linearGradient>
</defs>
</svg>
