<svg width="89" height="89" viewBox="0 0 89 89" fill="none" xmlns="http://www.w3.org/2000/svg">
<circle cx="44.5" cy="44.5" r="44.5" fill="#F1FFED"/>
<circle cx="44.0299" cy="44.0299" r="34.0299" fill="#DDFFD5"/>
<path d="M50.9344 36.9922C54.8376 36.9922 58.0019 33.8279 58.0019 29.9246C58.0019 26.0213 54.8376 22.8571 50.9344 22.8571C47.0311 22.8571 43.8668 26.0213 43.8668 29.9246C43.8668 33.8279 47.0311 36.9922 50.9344 36.9922Z" stroke="#9AF384" stroke-width="3" stroke-linecap="round" stroke-linejoin="round"/>
<path d="M42.6918 44.0597H44.8138C44.4188 42.3837 43.4698 40.8901 42.1203 39.8207C40.7708 38.7513 39.0998 38.1686 37.378 38.1671H27.1712C25.1387 38.1671 23.1894 38.9746 21.7521 40.4118C20.3149 41.8491 19.5074 43.7984 19.5074 45.831C19.5074 47.8635 20.3149 49.8128 21.7521 51.2501C23.1894 52.6873 25.1387 53.4948 27.1712 53.4948H33.2567C33.2567 50.9924 34.2507 48.5926 36.0202 46.8232C37.7896 45.0537 40.1894 44.0597 42.6918 44.0597V44.0597Z" stroke="#96FF7C" stroke-width="3" stroke-linecap="round" stroke-linejoin="round"/>
<path d="M32.2747 33.0638C33.289 33.0673 34.2814 32.7695 35.1263 32.2081C35.9711 31.6467 36.6301 30.8472 37.0199 29.9107C37.4097 28.9743 37.5125 27.9432 37.3155 26.9482C37.1185 25.9532 36.6304 25.0392 35.9132 24.3219C35.196 23.6047 34.2819 23.1166 33.2869 22.9196C32.2919 22.7226 31.2608 22.8255 30.3244 23.2152C29.388 23.605 28.5884 24.2641 28.027 25.1089C27.4657 25.9537 27.1678 26.9462 27.1713 27.9605C27.1713 29.314 27.709 30.612 28.666 31.5691C29.6231 32.5261 30.9212 33.0638 32.2747 33.0638V33.0638Z" stroke="#96FF7C" stroke-width="3" stroke-linecap="round" stroke-linejoin="round"/>
<path d="M59.1769 44.0597H42.6918C37.4809 44.0597 33.2567 48.2839 33.2567 53.4948V55.8448C33.2567 61.0556 37.4809 65.2799 42.6918 65.2799H59.1769C64.3877 65.2799 68.6119 61.0556 68.6119 55.8448V53.4948C68.6119 48.2839 64.3877 44.0597 59.1769 44.0597Z" stroke="#9AF384" stroke-width="3" stroke-linecap="round" stroke-linejoin="round"/>
</svg>
