<svg width="89" height="89" viewBox="0 0 89 89" fill="none" xmlns="http://www.w3.org/2000/svg">
<circle cx="44.5" cy="44.5" r="44.5" fill="#F1FFED"/>
<circle cx="44.0299" cy="44.0299" r="34.0299" fill="#DDFFD5"/>
<path d="M52.724 67.4362C50.0078 68.4479 47.069 69 44 69C30.1927 69 19 57.8073 19 44C19 30.1927 30.1927 19 44 19C57.8073 19 69 30.1927 69 44C69 53.0911 64.1471 61.0495 56.8906 65.4245" stroke="#9AF384" stroke-width="3" stroke-miterlimit="10" stroke-linecap="round" stroke-linejoin="round"/>
<path d="M52.847 39.5921L57.4624 35.9224V51.3071L52.847 47.8994" stroke="#9AF384" stroke-width="3" stroke-miterlimit="10" stroke-linecap="round" stroke-linejoin="round"/>
<path d="M42.8464 51.3071H33.7412C33.7412 51.3071 30.5387 51.3071 30.5387 48.0116C30.5387 45.2889 30.5387 36.6917 30.5387 36.6917H33.9403" stroke="#9AF384" stroke-width="3" stroke-miterlimit="10" stroke-linecap="round" stroke-linejoin="round"/>
<path d="M37.4608 36.6917H46.6093C46.6093 36.6917 49.7685 36.6917 49.7685 39.8437C49.7685 42.7092 49.7685 51.3071 49.7685 51.3071H46.6476" stroke="#9AF384" stroke-width="3" stroke-miterlimit="10" stroke-linecap="round" stroke-linejoin="round"/>
</svg>
